<svg xmlns="http://www.w3.org/2000/svg" viewBox="0 0 32 32" fill="none">
  <rect width="32" height="32" rx="8" fill="#163422"/>
  <g stroke="#c8ebd0" stroke-width="1.5" stroke-linecap="round" stroke-linejoin="round" fill="none">
    <path d="M8 26 L20 14"/>
    <path d="M9.5 18.5 L10.8 17.2 L12.1 18.5a2.2 2.2 0 0 0 3.1 0L16.5 17.2 L17.8 18.5a2.2 2.2 0 0 0 3.1 0L22.5 17.2"/>
    <path d="M10.5 15 L9 13.5"/>
    <path d="M13.5 18.5 L12 17"/>
    <path d="M16.5 22 L15 20.5"/>
    <path d="M19.5 25.5 L18 24"/>
    <path d="M12 11.5 L10.5 10"/>
    <path d="M15 15 L13.5 13.5"/>
    <path d="M18 18.5 L16.5 17"/>
    <path d="M21 22 L19.5 20.5"/>
  </g>
</svg>
